<?xml version="1.0" standalone="no"?>
<!DOCTYPE svg PUBLIC "-//W3C//DTD SVG 20010904//EN"
 "http://www.w3.org/TR/2001/REC-SVG-20010904/DTD/svg10.dtd">
<svg version="1.0" xmlns="http://www.w3.org/2000/svg"
 width="1142.000000pt" height="1061.000000pt" viewBox="0 0 1142.000000 1061.000000"
 preserveAspectRatio="xMidYMid meet">

<g transform="translate(0.000000,1061.000000) scale(0.100000,-0.100000)"
fill="#000000" stroke="none">
<path d="M0 5305 l0 -5305 5710 0 5710 0 0 5305 0 5305 -5710 0 -5710 0 0
-5305z m5513 4145 c58 -102 226 -394 349 -605 41 -71 134 -231 205 -355 72
-124 155 -269 187 -322 31 -54 80 -140 110 -190 29 -51 114 -199 188 -328 75
-129 158 -273 185 -320 27 -47 108 -186 179 -310 72 -124 224 -387 339 -585
277 -479 384 -664 473 -820 41 -71 111 -193 156 -270 46 -77 163 -279 261
-450 98 -170 199 -346 225 -390 26 -44 84 -145 130 -225 94 -163 203 -353 260
-450 49 -84 448 -776 598 -1035 63 -110 127 -220 142 -245 54 -90 269 -466
276 -483 6 -16 -83 -17 -1437 -17 l-1444 0 -99 173 c-111 192 -573 990 -658
1137 -124 214 -323 558 -346 600 -14 25 -56 97 -92 160 -37 63 -211 363 -385
665 -175 303 -341 591 -370 640 -29 50 -105 182 -170 295 -65 113 -148 257
-185 320 -37 63 -161 277 -275 475 -114 198 -230 398 -256 444 -27 46 -49 88
-49 93 0 6 15 35 34 66 37 62 76 130 366 632 106 184 239 414 295 510 56 96
157 272 225 390 67 118 135 235 150 260 15 25 80 137 145 250 200 346 227 391
230 388 2 -2 28 -46 58 -98z m-75 -4932 c-30 -48 -145 -245 -568 -978 -58
-102 -194 -336 -300 -520 -106 -184 -210 -364 -231 -400 -20 -36 -102 -177
-182 -315 l-145 -250 -1446 -3 c-795 -1 -1446 1 -1446 6 0 4 6 17 14 28 13 18
240 407 289 494 10 19 58 103 106 185 48 83 184 317 301 520 117 204 237 411
266 460 109 187 389 673 423 733 l35 62 1449 0 1449 0 -14 -22z"/>
</g>
</svg>
